<svg width="92" height="76" viewBox="0 0 92 76" fill="none" xmlns="http://www.w3.org/2000/svg">
<path d="M13.0285 59.2055C11.3588 58.9992 10.1252 58.4449 8.89776 57.35C7.98544 56.5357 7.47629 55.7203 7.19477 54.6227C6.93651 53.6162 6.93586 53.3144 7.1882 52.3405C7.81906 49.8803 10.149 48.0666 13.1252 47.7181C14.3975 47.5715 15.8069 47.7181 16.9493 48.1795C17.4415 48.3695 17.8685 48.5269 17.8984 48.5269C17.9313 48.5269 17.951 48.3966 17.951 48.2392V47.9515H19.4978H21.0446V53.4696V58.9872H19.4978H17.951V58.6995C17.951 58.5421 17.9247 58.4118 17.8984 58.4118C17.8656 58.4118 17.4411 58.5692 16.9493 58.7538C16.4571 58.9438 15.6433 59.1501 15.1406 59.2152C14.1284 59.3455 14.1248 59.3455 13.0313 59.2136L13.0285 59.2055ZM15.7002 56.3728C16.9577 55.8463 17.9501 54.5971 17.9501 53.5375C17.9501 51.8074 16.1321 50.2668 14.0933 50.2689C11.9721 50.2717 10.2118 51.714 10.2192 53.4441C10.2247 54.7198 10.9818 55.7333 12.3586 56.3088C13.1545 56.6399 13.3344 56.6725 14.2238 56.6291C14.7725 56.5748 15.4257 56.4879 15.7002 56.3739V56.3728ZM28.2906 59.2038C27.2077 59.0681 25.6586 58.452 24.7802 57.8071C22.2179 55.9255 21.6865 52.6961 23.5478 50.3173C25.0068 48.452 27.7507 47.4119 30.394 47.7208C31.2722 47.8239 32.656 48.2039 32.919 48.4183C32.9926 48.4781 33.103 48.5269 33.1647 48.5269C33.2239 48.5269 33.2771 47.534 33.2771 46.3202V44.1129H34.8942H36.5114V51.5474V58.9818H34.8942H33.2771V58.6941C33.2771 58.3575 33.2377 58.3467 32.8151 58.5692C31.8289 59.0958 29.7376 59.3884 28.2902 59.2076L28.2906 59.2038ZM31.1406 56.3017C32.5517 55.7192 33.2881 54.7209 33.2668 53.4191C33.2405 51.7249 31.765 50.4318 29.7109 50.3004C27.4812 50.1593 25.5435 51.663 25.5435 53.5375C25.5435 54.7958 26.8178 56.1638 28.3477 56.5471C29.1992 56.7588 30.2537 56.6665 31.1406 56.3028V56.3017ZM48.8208 59.2C47.5242 59.0426 46.0586 58.4085 45.0257 57.5557C43.6216 56.3956 42.9801 55.1123 42.9801 53.4631C42.9801 51.8134 43.6215 50.5301 45.0257 49.37C47.0967 47.6594 50.2172 47.1823 52.8041 48.1806C53.2963 48.3706 53.7232 48.528 53.7532 48.528C53.7861 48.528 53.8058 47.5335 53.8058 46.3175V44.1064L55.3877 44.1607L56.9697 44.215L57.0026 51.6201L57.042 59.0258H55.4239H53.8057V58.7381C53.8057 58.5806 53.7794 58.4503 53.7531 58.4503C53.7203 58.4503 53.2958 58.6078 52.804 58.7923C52.3118 58.9823 51.498 59.1886 50.9953 59.2538C49.9784 59.3895 49.9934 59.3895 48.8208 59.2538L48.8208 59.2ZM51.4905 56.3837C54.5008 55.2252 54.5799 51.8894 51.6285 50.58C50.8288 50.2271 49.056 50.2271 48.2473 50.58C46.8446 51.1956 45.9728 52.4892 46.1112 53.7503C46.1973 54.5358 46.4838 55.0455 47.1794 55.6503C48.3347 56.6557 50.0332 56.9445 51.4909 56.3837H51.4905ZM64.1432 59.2158C60.6924 58.7652 58.1703 56.3348 58.1703 53.4631C58.1703 50.2575 61.2344 47.7137 65.1277 47.6871C66.3249 47.6871 67.6082 47.9205 68.4049 48.3027C68.9918 48.585 68.9944 48.585 68.9944 48.2376V47.9499H70.6115H72.2286V53.468V58.9856H70.6115H68.9944V58.6979C68.9944 58.3667 68.8971 58.345 68.5042 58.5893C67.7566 59.0562 65.4385 59.3933 64.143 59.2234L64.1432 59.2158ZM66.4687 56.4814C67.3409 56.2263 68.2105 55.5884 68.6297 54.8935C69.3607 53.6813 68.9944 51.9393 67.8399 51.137C65.7831 49.7071 62.9162 50.1365 61.7207 52.0528C61.2193 52.8567 61.1996 54.0163 61.6747 54.83C62.0638 55.4972 63.0343 56.2317 63.8377 56.4673C64.6113 56.6953 65.7208 56.7007 66.4691 56.4673L66.4687 56.4814ZM77.7211 58.9237C75.3243 58.4731 73.8692 57.287 73.7343 55.6698L73.708 55.3224L75.5009 55.2681C77.2355 55.2138 77.2938 55.2681 77.2938 55.4798C77.2938 55.9358 77.7209 56.4201 78.3226 56.6453C78.7412 56.8028 79.2363 56.8679 80.038 56.8679C81.3631 56.8712 82.0382 56.6399 82.3116 56.0851C82.4647 55.7757 82.4522 55.6943 82.213 55.4429C81.8536 55.0629 81.2686 54.8821 78.981 54.431C75.8816 53.8198 74.741 53.2313 74.3356 52.0354C73.9394 50.8661 74.4855 49.2668 75.5294 48.5367C76.9147 47.5688 79.5971 47.2338 82.0746 47.7202C84.0478 48.1057 85.3496 49.2098 85.4732 50.5979L85.5192 51.1191L83.8151 51.1733L82.1109 51.2276L82.032 50.9019C81.986 50.7228 81.8224 50.4405 81.6627 50.2717C81.1436 49.7261 79.3002 49.5529 78.2449 49.9514C77.8131 50.1142 77.508 50.6348 77.6416 50.9823C77.7829 51.3514 78.4103 51.5604 80.9604 52.0989C82.2428 52.3703 83.554 52.702 83.8743 52.8367C85.3899 53.4756 85.9359 54.2568 85.8499 55.6633C85.7559 57.1996 84.768 58.2261 82.8473 58.7826C81.7304 59.1083 79.0326 59.1951 77.723 58.9509L77.7211 58.9237ZM38.0923 53.3176L38.1317 47.6545L39.8543 47.6003L41.5769 47.546V53.2416V58.9373H39.8178H38.0587L38.0982 53.2742L38.0923 53.3176ZM38.0595 45.5059V44.228H39.8172H41.5749V45.5059V46.7833H39.8172H38.0595V45.5059ZM82.7678 46.2089C82.0882 46.0406 81.792 45.8452 81.5109 45.3903C81.1502 44.8062 81.1541 44.3122 81.5241 43.7688C82.0734 42.9615 83.2782 42.6755 84.2943 43.1114C85.7237 43.7243 85.6329 45.5325 84.1444 46.0906C83.5024 46.3294 83.3204 46.3457 82.7681 46.21L82.7678 46.2089ZM84.1934 45.7692C85.6288 45.0689 84.9632 43.1798 83.2811 43.1798C82.1346 43.1798 81.2993 44.0994 81.6496 44.9766C81.9998 45.8533 83.2336 46.2377 84.1934 45.7692ZM82.3542 44.5575V43.6119L83.0606 43.6825C83.449 43.7367 83.8288 43.7856 83.9043 43.8236C84.1547 43.9539 84.0476 44.4441 83.7288 44.6287C83.5567 44.7264 83.4798 44.8078 83.558 44.8078C83.6355 44.8078 83.8117 44.9652 83.949 45.1552C84.1639 45.4538 84.1685 45.5027 83.9818 45.5027C83.8636 45.5027 83.6723 45.3507 83.5573 45.1661C83.3812 44.8838 83.0829 44.6884 82.8339 44.6884C82.801 44.6884 82.7747 44.8729 82.7747 45.0955C82.7747 45.3778 82.709 45.5027 82.5638 45.5027C82.3936 45.5027 82.3529 45.3181 82.3529 44.557L82.3542 44.5575ZM83.7032 44.3241C83.8228 44.1667 83.3898 43.879 83.0304 43.879C82.8529 43.879 82.7761 43.9658 82.7761 44.1667C82.7761 44.411 82.8424 44.4544 83.1894 44.4544C83.4168 44.4544 83.6481 44.3947 83.7033 44.3187L83.7032 44.3241ZM16.0683 42.9387C15.5925 42.2689 15.2935 41.7298 15.3652 41.6728C15.5512 41.5262 26.533 36.0944 26.6457 36.0944C26.6983 36.0944 27.972 37.78 29.4746 39.8407C30.9772 41.9008 32.2969 43.7047 32.4072 43.848L32.6076 44.1086L24.752 44.1064L16.8964 44.1043L16.0682 42.9377L16.0683 42.9387ZM33.6295 37.9911C31.1848 34.626 29.1723 31.8232 29.1573 31.7624C29.1179 31.605 40.4663 25.9527 40.5896 26.0678C40.6711 26.1438 53.4246 43.7053 53.6286 44.0223C53.6615 44.0766 50.1724 44.1091 45.8797 44.1091H38.0746L33.6295 37.9906V37.9911ZM51.0518 32.8606L42.8814 21.6115L48.544 18.8049C51.6584 17.2611 54.2594 15.9989 54.324 16C54.4357 16.0022 74.7608 43.886 74.7608 44.0375C74.7608 44.0918 71.2646 44.1081 66.9916 44.1081H59.2224L51.0518 32.859V32.8606Z" fill="white"/>
</svg>
