<svg width="200" height="200" viewBox="0 0 200 200" fill="none" xmlns="http://www.w3.org/2000/svg">
<rect width="200" height="200" fill="black"/>
<path d="M67.0833 64C64.5725 64 64.5533 67.9181 67.0833 67.8793H151.417C152.513 67.8793 153.333 68.7095 153.333 69.819V120.25C153.333 122.81 157.167 122.81 157.167 120.25V69.819C157.167 66.6302 154.568 64 151.417 64H67.0833ZM59.4167 71.7586C56.9097 71.7586 56.9097 75.6379 59.4167 75.6379H143.75C144.846 75.6379 145.667 76.4681 145.667 77.5776V128.008C145.667 130.588 149.538 130.569 149.5 128.008V77.5776C149.5 74.3888 146.901 71.7586 143.75 71.7586H59.4167ZM51.75 79.5172C48.599 79.5172 46 82.1474 46 85.3362V131.888C46 135.077 48.599 137.707 51.75 137.707H136.083C139.234 137.707 141.833 135.077 141.833 131.888V85.3362C141.833 82.1474 139.234 79.5172 136.083 79.5172H51.75ZM51.75 83.3965H136.083C137.18 83.3965 138 84.2267 138 85.3362V131.888C138 132.997 137.18 133.827 136.083 133.827H51.75C50.6537 133.827 49.8333 132.997 49.8333 131.888V85.3362C49.8333 84.2267 50.6537 83.3965 51.75 83.3965ZM55.5833 87.2758C54.5253 87.2758 53.6667 88.1448 53.6667 89.2155V96.9741C53.6667 99.581 57.5 99.5189 57.5 96.9741V91.1551H63.25C65.826 91.1551 65.7647 87.2758 63.25 87.2758H55.5833ZM93.9167 87.2758C82.294 87.2758 72.8333 96.8499 72.8333 108.612C72.8333 120.374 82.294 129.948 93.9167 129.948C105.539 129.948 115 120.374 115 108.612C115 96.8499 105.539 87.2758 93.9167 87.2758ZM124.583 87.2758C122.069 87.2758 122.007 91.1551 124.583 91.1551H130.333V96.9741C130.333 99.5189 134.167 99.581 134.167 96.9741V89.2155C134.167 88.1448 133.308 87.2758 132.25 87.2758H124.583ZM93.9167 91.1551C103.462 91.1551 111.167 98.9525 111.167 108.612C111.167 118.271 103.462 126.069 93.9167 126.069C84.3717 126.069 76.6667 118.271 76.6667 108.612C76.6667 98.9525 84.3717 91.1551 93.9167 91.1551ZM93.9167 95.0344C92.8548 95.0344 92 95.8995 92 96.9741V99.2784C89.7843 100.093 88.1667 102.227 88.1667 104.733C88.1667 107.914 90.7733 110.552 93.9167 110.552C94.99 110.552 95.8333 111.374 95.8333 112.491C95.8333 113.609 94.99 114.431 93.9167 114.431H90.0833C88.7877 114.412 88.1667 115.393 88.1667 116.371C88.1667 117.348 88.7877 118.33 90.0833 118.31H92V120.25C92 121.324 92.8548 122.19 93.9167 122.19C94.9785 122.19 95.8333 121.324 95.8333 120.25V117.946C98.049 117.131 99.6667 114.997 99.6667 112.491C99.6667 109.31 97.06 106.672 93.9167 106.672C92.8433 106.672 92 105.85 92 104.733C92 103.615 92.8433 102.793 93.9167 102.793H97.75C99.0457 102.812 99.6667 101.831 99.6667 100.853C99.6667 99.8758 99.0457 98.8943 97.75 98.9137H95.8333V96.9741C95.8333 95.8995 94.9785 95.0344 93.9167 95.0344ZM55.5833 118.318C54.625 118.31 53.6667 118.946 53.6667 120.25V128.008C53.6667 129.079 54.5253 129.948 55.5833 129.948H63.25C65.7647 129.948 65.826 126.069 63.25 126.069H57.5V120.25C57.5 118.977 56.5417 118.326 55.5833 118.318ZM132.25 118.318C131.292 118.326 130.333 118.977 130.333 120.25V126.069H124.583C122.007 126.069 122.069 129.948 124.583 129.948H132.25C133.308 129.948 134.167 129.079 134.167 128.008V120.25C134.167 118.946 133.208 118.31 132.25 118.318Z" fill="white"/>
</svg>
