<svg width="200" height="200" viewBox="0 0 200 200" fill="none" xmlns="http://www.w3.org/2000/svg">
<rect width="200" height="200" fill="black"/>
<path d="M146.32 83.9141C145.773 83.1328 144.875 82.6641 143.938 82.6641H125.773V74.9297C125.773 73.3281 124.445 72 122.844 72H57.0234C55.4219 72 54.0938 73.3281 54.0938 74.9297V122.273C54.0938 123.875 55.4219 125.203 57.0234 125.203H65.3047C66.8281 130.516 71.75 134.461 77.5312 134.461C83.3125 134.461 88.2344 130.555 89.7578 125.203H122.219C123.742 130.516 128.664 134.461 134.445 134.461C140.227 134.461 145.148 130.555 146.672 125.203H152.727C154.328 125.203 155.656 123.875 155.656 122.273V98.1719C155.656 97.5469 155.461 96.9609 155.109 96.4922L146.32 83.9141ZM149.836 99.0312H136.711V88.5625H142.453L149.836 99.0312ZM59.9531 77.8984H119.914V119.383H90.0313C88.8984 113.484 83.7422 109.031 77.5312 109.031C71.3203 109.031 66.125 113.484 65.0312 119.383H59.9531V77.8984ZM77.5312 128.602C73.7422 128.602 70.6563 125.516 70.6563 121.727C70.6563 117.938 73.7422 114.852 77.5312 114.852C81.3203 114.852 84.4063 117.938 84.4063 121.727C84.4063 125.516 81.3203 128.602 77.5312 128.602ZM134.484 128.602C130.695 128.602 127.609 125.516 127.609 121.727C127.609 117.938 130.695 114.852 134.484 114.852C138.273 114.852 141.359 117.938 141.359 121.727C141.359 125.516 138.273 128.602 134.484 128.602ZM146.984 119.383C145.852 113.484 140.695 109.031 134.484 109.031C131.125 109.031 128.039 110.359 125.773 112.508V88.5625H130.812V101.961C130.812 103.563 132.141 104.891 133.742 104.891H149.875V119.383H146.984Z" fill="white"/>
<path d="M25.9297 77.8984H46.8281C48.4297 77.8984 49.7578 76.5703 49.7578 74.9688C49.7578 73.3672 48.4297 72.0391 46.8281 72.0391H25.9297C24.3281 72.0391 23 73.3672 23 74.9688C23 76.5703 24.3281 77.8984 25.9297 77.8984Z" fill="white"/>
<path d="M46.8281 82.7031H30.7344C29.1328 82.7031 27.8047 84.0312 27.8047 85.6328C27.8047 87.2344 29.1328 88.5625 30.7344 88.5625H46.8281C48.4297 88.5625 49.7578 87.2344 49.7578 85.6328C49.7578 84.0312 48.4688 82.7031 46.8281 82.7031Z" fill="white"/>
<path d="M46.8281 93.3672H36.6719C35.0703 93.3672 33.7422 94.6953 33.7422 96.2969C33.7422 97.8984 35.0703 99.2266 36.6719 99.2266H46.8281C48.4297 99.2266 49.7578 97.8984 49.7578 96.2969C49.7578 94.6953 48.4688 93.3672 46.8281 93.3672Z" fill="white"/>
<path d="M46.8281 104.031H43.3125C41.7109 104.031 40.3828 105.359 40.3828 106.961C40.3828 108.562 41.7109 109.891 43.3125 109.891H46.8281C48.4297 109.891 49.7578 108.562 49.7578 106.961C49.7578 105.359 48.4688 104.031 46.8281 104.031Z" fill="white"/>
</svg>
