<svg width="99" height="85" viewBox="0 0 99 85" fill="none" xmlns="http://www.w3.org/2000/svg">
<path d="M36.2588 50.1924V34.8074C36.2489 34.4421 36.3241 34.0788 36.4802 33.7388C36.6362 33.3988 36.8698 33.0891 37.1672 32.8277C37.4647 32.5664 37.82 32.3588 38.2123 32.217C38.6046 32.0753 39.0259 32.0023 39.4515 32.0024H39.798C40.6645 32.0024 41.4955 32.298 42.1081 32.824C42.7208 33.35 43.065 34.0635 43.065 34.8074V50.1924C43.065 50.9364 42.7208 51.6498 42.1081 52.1759C41.4955 52.7019 40.6645 52.9974 39.798 52.9974H39.4268C39.0012 52.9975 38.5798 52.9246 38.1876 52.7829C37.7953 52.6411 37.44 52.4335 37.1425 52.1721C36.845 51.9108 36.6114 51.601 36.4554 51.2611C36.2994 50.9211 36.2241 50.5578 36.234 50.1924" fill="white"/>
<path d="M77.4428 33.8299L84.6945 43.9449C86.2538 46.0699 86.625 46.7074 86.625 48.3224C86.5923 49.4632 86.0682 50.553 85.1539 51.3812C84.2395 52.2094 83 52.7171 81.675 52.8062H71.775C71.3618 52.8263 70.9481 52.7744 70.5588 52.6537C70.1696 52.533 69.8128 52.3459 69.5099 52.1037C69.207 51.8615 68.9643 51.5692 68.7964 51.2444C68.6285 50.9196 68.5388 50.569 68.5328 50.2137V50.0437C68.5393 49.3091 68.8838 48.6065 69.4911 48.089C70.0985 47.5715 70.9194 47.2812 71.775 47.2812H77.7645C78.1358 47.2812 78.3833 47.2812 78.4823 47.0262C78.5456 46.9365 78.5791 46.8336 78.5791 46.7287C78.5791 46.6238 78.5456 46.5209 78.4823 46.4312L74.2005 40.5449C74.2005 40.5449 74.052 40.3112 73.9283 40.3112C73.8045 40.3112 73.7055 40.4387 73.6313 40.5449L67.0973 50.1712C66.0825 51.7012 64.8945 52.8062 63.1125 52.8062H50.4653C49.2252 52.7363 48.0569 52.2818 47.1781 51.5273C46.2993 50.7727 45.7699 49.7697 45.6885 48.7049V34.7862C45.6885 34.0535 46.0275 33.3509 46.6309 32.8328C47.2343 32.3147 48.0527 32.0237 48.906 32.0237H49.3268C50.1801 32.0237 50.9985 32.3147 51.6019 32.8328C52.2053 33.3509 52.5443 34.0535 52.5443 34.7862V46.1549C52.5374 46.2551 52.5548 46.3555 52.5956 46.4496C52.6363 46.5437 52.6995 46.6294 52.781 46.7014C52.8625 46.7734 52.9605 46.83 53.0689 46.8676C53.1773 46.9052 53.2937 46.9231 53.4105 46.9199H59.6723C60.1502 46.939 60.6242 46.8388 61.0371 46.6313C61.45 46.4239 61.784 46.1182 61.9988 45.7512L70.389 33.8299C70.7474 33.2877 71.2705 32.8392 71.9026 32.5323C72.5346 32.2254 73.2519 32.0716 73.9778 32.0874C74.6865 32.0747 75.3854 32.2308 75.997 32.5383C76.6087 32.8459 77.1091 33.293 77.4428 33.8299Z" fill="white"/>
<path d="M20.1218 45.6024C19.8855 45.6024 19.6588 45.683 19.4917 45.8265C19.3246 45.9699 19.2308 46.1645 19.2308 46.3674V50.2349C19.2308 50.9676 18.8918 51.6702 18.2884 52.1883C17.685 52.7063 16.8666 52.9974 16.0133 52.9974H15.5925C14.7392 52.9974 13.9208 52.7063 13.3174 52.1883C12.714 51.6702 12.375 50.9676 12.375 50.2349V43.1799C12.3684 42.7458 12.4631 42.3149 12.6535 41.9127C12.8439 41.5105 13.1262 41.1451 13.4838 40.8381C13.8414 40.5311 14.2669 40.2887 14.7354 40.1252C15.2038 39.9617 15.7056 39.8804 16.2113 39.8861H29.3288C30.1821 39.8861 31.0005 40.1772 31.6039 40.6953C32.2073 41.2133 32.5463 41.916 32.5463 42.6486V42.8399C32.5463 43.5726 32.2073 44.2752 31.6039 44.7933C31.0005 45.3113 30.1821 45.6024 29.3288 45.6024H20.1218Z" fill="white"/>
<path d="M15.642 32.4061H30.9127C31.3382 32.3976 31.7614 32.4623 32.1574 32.5962C32.5534 32.7302 32.9141 32.9307 33.2185 33.1861C33.5229 33.4415 33.7647 33.7466 33.9298 34.0834C34.0949 34.4202 34.1799 34.782 34.1798 35.1474V35.3174C34.1798 35.6857 34.0952 36.0505 33.9311 36.3908C33.7669 36.7311 33.5262 37.0404 33.2229 37.3008C32.9195 37.5613 32.5593 37.7679 32.163 37.9089C31.7666 38.0498 31.3418 38.1224 30.9127 38.1224H15.642C14.7755 38.1224 13.9446 37.8269 13.3319 37.3008C12.7192 36.7748 12.375 36.0613 12.375 35.3174V35.1261C12.3782 34.7625 12.4656 34.4031 12.6321 34.0687C12.7986 33.7344 13.041 33.4318 13.345 33.1787C13.6491 32.9256 14.0088 32.7269 14.4031 32.5943C14.7974 32.4616 15.2186 32.3977 15.642 32.4061Z" fill="white"/>
</svg>
