<svg width="200" height="200" viewBox="0 0 200 200" fill="none" xmlns="http://www.w3.org/2000/svg">
<rect width="200" height="200" fill="black"/>
<path d="M151.312 51H57.5625C56.6984 51 56 51.7 56 52.5625V121.312C56 122.175 56.6984 122.875 57.5625 122.875H76.0312L73.2094 139.805C73.1125 140.384 73.35 140.97 73.8234 141.319C74.2953 141.669 74.9219 141.722 75.45 141.459L87.25 135.559L99.0516 141.459C99.2719 141.57 99.5125 141.625 99.75 141.625C100.078 141.625 100.405 141.522 100.678 141.319C101.152 140.97 101.388 140.384 101.292 139.805L98.4688 122.875H131V132.25H126.312C125.448 132.25 124.75 132.95 124.75 133.812V138.5H123.188C122.323 138.5 121.625 139.2 121.625 140.062V146.312C121.625 147.175 122.323 147.875 123.188 147.875H148.188C149.052 147.875 149.75 147.175 149.75 146.312V140.062C149.75 139.2 149.052 138.5 148.188 138.5H146.625V133.812C146.625 132.95 145.927 132.25 145.062 132.25H140.375V122.875H151.312C152.177 122.875 152.875 122.175 152.875 121.312V52.5625C152.875 51.7 152.177 51 151.312 51ZM72.5141 105.167C72.5141 105.167 72.5125 105.167 72.5141 105.167C72.0156 106.578 71.7375 108.047 71.6594 109.544C69.7578 108.453 68.5 106.409 68.5 104.125V69.75C68.5 66.3031 71.3031 63.5 74.75 63.5H134.125C137.572 63.5 140.375 66.3031 140.375 69.75V104.125C140.375 105.241 140.072 106.303 139.52 107.25H129.438C128.573 107.25 127.875 107.95 127.875 108.812V110.375H102.875C102.875 101.759 95.8656 94.75 87.25 94.75C80.6406 94.75 74.7172 98.9359 72.5141 105.167ZM138.812 113.5H132.562H131V110.375H140.375V113.5H138.812ZM75.4609 106.208C77.2234 101.223 81.9609 97.875 87.25 97.875C94.1422 97.875 99.75 103.483 99.75 110.375C99.75 117.267 94.1422 122.875 87.25 122.875C80.3578 122.875 74.75 117.267 74.75 110.375C74.75 108.945 74.9891 107.544 75.4609 106.208ZM87.9484 132.414C87.5094 132.194 86.9906 132.194 86.55 132.414L76.7953 137.292L79.0672 123.659C81.4516 125.134 84.2484 126 87.25 126C90.2516 126 93.0484 125.134 95.4328 123.661L97.7047 137.294L87.9484 132.414ZM99.7203 119.75C101.092 117.93 102.089 115.812 102.561 113.5H127.875V115.062C127.875 115.925 128.573 116.625 129.438 116.625H131V119.75H99.7203ZM146.625 144.75H124.75V141.625H126.312H145.062H146.625V144.75ZM143.5 138.5H127.875V135.375H132.562H138.812H143.5V138.5ZM134.125 132.25V116.625H137.25V132.25H134.125ZM149.75 119.75H140.375V116.625H141.938C142.802 116.625 143.5 115.925 143.5 115.062V108.812C143.5 108.286 143.223 107.844 142.823 107.559C143.253 106.475 143.5 105.322 143.5 104.125V69.75C143.5 64.5797 139.295 60.375 134.125 60.375H74.75C69.5797 60.375 65.375 64.5797 65.375 69.75V104.125C65.375 108.209 68.0578 111.773 71.8656 113.013C72.2938 115.511 73.3141 117.805 74.7797 119.75H59.125V54.125H149.75V119.75Z" fill="white"/>
<path d="M87.25 119.75C92.4203 119.75 96.625 115.545 96.625 110.375C96.625 105.205 92.4203 101 87.25 101C82.0797 101 77.875 105.205 77.875 110.375C77.875 115.545 82.0797 119.75 87.25 119.75ZM87.25 104.125C90.6969 104.125 93.5 106.928 93.5 110.375C93.5 113.822 90.6969 116.625 87.25 116.625C83.8031 116.625 81 113.822 81 110.375C81 106.928 83.8031 104.125 87.25 104.125Z" fill="white"/>
<path d="M113.812 69.75H95.0625V72.875H113.812V69.75Z" fill="white"/>
<path d="M121.625 76H87.25V79.125H121.625V76Z" fill="white"/>
<path d="M113.812 82.25H95.0625V85.375H113.812V82.25Z" fill="white"/>
</svg>
