<svg width="97" height="71" viewBox="0 0 97 71" fill="none" xmlns="http://www.w3.org/2000/svg">
<path d="M12.0658 50.6483C9.6278 49.7928 7.55602 48.2384 7.10643 46.9274C6.57916 45.3888 7.26648 42.4179 8.67803 40.1398C10.0097 37.9901 13.7606 33.6839 16.1185 31.5975L17.2284 30.6157L16.3332 32.4896C15.0882 35.0958 15.1379 37.8851 16.4545 39.3152C18.424 41.4543 22.3304 42.5969 25.8567 42.0644C28.4546 41.6739 53.6534 36.6654 54.5664 36.3601C55.2032 36.1471 54.4618 36.0558 51.9951 36.0406H48.5294L48.4948 34.3224C48.474 33.3771 48.3257 31.9733 48.1595 31.203L47.8574 29.8027L46.3146 32.9217L44.7717 36.0406H42.1781C40.7516 36.0406 39.5844 35.9138 39.5844 35.7617C39.5844 35.6095 41.0131 32.6995 42.7592 29.2971C44.5053 25.8952 46.3308 22.3381 46.8159 21.3928L47.6981 19.6746H50.349C51.8071 19.6746 53 19.7253 53 19.776C53 19.8318 52.4984 20.8152 51.8849 21.9603C51.2718 23.1059 50.8231 24.0822 50.8881 24.1298C50.9505 24.1806 52.109 23.1997 53.4566 21.9572L55.9068 19.6979H64.1157C71.4457 19.6979 72.2955 19.7486 72.0514 20.2076C71.901 20.4967 71.6564 21.0834 71.5082 21.5165C71.2588 22.2443 71.0225 22.3046 68.4397 22.3046H65.6413L64.7471 24.0233L63.8529 25.7415L66.2524 25.8379C67.5721 25.8937 68.6518 26.0813 68.6518 26.2588C68.6518 26.4363 68.365 27.0834 68.0137 27.6986C67.404 28.7672 67.2614 28.8209 64.7964 28.9152L62.2174 29.0167L61.1864 30.9687C60.619 32.0423 60.1554 32.9633 60.1554 33.0145C60.1554 33.0652 61.5577 33.1058 63.2716 33.1058C65.8579 33.1058 66.3441 33.192 66.1305 33.5977C65.9892 33.8665 66.0751 34.0896 66.3252 34.0896C66.5739 34.0896 71.9617 33.0586 78.298 31.7983C89.1615 29.6379 92.1638 29.1942 88.7115 30.2597C87.8857 30.5132 73.9284 34.9239 57.6956 40.0582C41.4627 45.1925 26.672 49.7943 24.8274 50.2842C22.6342 50.8669 20.2354 51.2275 17.8959 51.3259C14.7785 51.4577 14.0286 51.3766 12.0642 50.6854L12.0658 50.6483ZM57.8724 27.0484C59.6206 23.646 61.0417 20.7741 61.0303 20.6655C61.0165 20.559 59.312 21.7944 57.237 23.4143L53.4643 26.3603L53.4616 29.1424C53.458 32.5677 53.8856 34.7971 54.3668 33.8665C54.547 33.5165 56.1243 30.4504 57.8725 27.0484H57.8724ZM19.036 34.3133C19.5314 33.3598 21.4101 29.7074 23.2108 26.197L26.4849 19.8141L29.4052 19.7177L32.3255 19.6213L32.1682 21.0261C31.7906 24.3971 31.6313 26.523 31.756 26.523C31.8301 26.523 32.6661 24.9773 33.6142 23.0882L35.338 19.6533L37.9093 19.6497C39.3235 19.6497 40.4806 19.7715 40.4806 19.9287C40.4806 20.0808 39.052 22.9913 37.3059 26.3932C35.5598 29.7956 33.7342 33.3522 33.2491 34.2975L32.367 36.0163H29.4442H26.5214L26.7874 32.661C26.9336 30.8155 26.9537 29.4533 26.8359 29.6334C26.7147 29.8109 25.9434 31.2861 25.1227 32.9065L23.6305 35.8524L20.8848 35.9488L18.1391 36.0452L19.0399 34.3112L19.036 34.3133ZM33.3255 35.7378C33.3255 35.5857 34.7541 32.6752 36.5001 29.2728C38.2463 25.8709 40.0718 22.3138 40.5569 21.369L41.439 19.6502H44.1273C45.6059 19.6502 46.7485 19.777 46.6665 19.9342C46.5847 20.0915 44.7063 23.7713 42.4927 28.114L38.468 36.0092L35.8967 36.0122C34.4825 36.0157 33.3255 35.8905 33.3255 35.7383V35.7378Z" fill="white"/>
</svg>
