<svg width="200" height="201" viewBox="0 0 200 201" fill="none" xmlns="http://www.w3.org/2000/svg">
<rect y="0.812744" width="200" height="200" fill="black"/>
<path d="M140.898 150.717C142.1 150.717 143.096 149.721 143.096 148.52V77.5332C143.096 77.5039 143.096 77.4453 143.096 77.416C143.096 76.8301 142.861 76.2734 142.48 75.8926L122.002 52.1328L121.973 52.1035C121.973 52.1035 121.973 52.1035 121.943 52.0742C121.885 51.9863 121.797 51.9277 121.738 51.8691C121.738 51.8691 121.738 51.8691 121.709 51.8398C121.621 51.7812 121.562 51.7227 121.475 51.6641L121.445 51.6348C121.27 51.5176 121.094 51.459 120.889 51.4004H120.859C120.684 51.3711 120.508 51.3418 120.332 51.3418H59.1016C57.9004 51.3418 56.9043 52.3379 56.9043 53.5391V148.578C56.9043 149.779 57.9004 150.775 59.1016 150.775H140.898V150.717ZM122.529 59.3984L136.123 75.1895H122.529V59.3984ZM61.2988 55.6777H118.135V77.3867C118.135 78.5879 119.131 79.584 120.332 79.584H138.73V146.293H61.2988V55.6777Z" fill="white"/>
<path d="M78.8477 103.666C72.666 103.666 67.6562 108.676 67.6562 114.857C67.6562 117.582 68.623 120.072 70.2637 122.006V138.236C70.2637 139.057 70.7324 139.818 71.4648 140.199C72.1973 140.58 73.0762 140.521 73.75 140.023L78.8769 136.361L83.9746 140.023C84.3555 140.287 84.7949 140.434 85.2637 140.434C85.6152 140.434 85.9375 140.346 86.2598 140.199C86.9922 139.818 87.4609 139.057 87.4609 138.236V122.006C89.0723 120.072 90.0684 117.582 90.0684 114.857C90.0391 108.705 85.0293 103.666 78.8477 103.666ZM78.8477 108.061C82.5977 108.061 85.6445 111.107 85.6445 114.857C85.6445 118.607 82.5977 121.654 78.8477 121.654C76.9727 121.654 75.2441 120.893 74.0137 119.633C74.0137 119.633 74.0137 119.633 73.9844 119.604C72.7832 118.373 72.0508 116.703 72.0508 114.857C72.0508 111.107 75.0977 108.061 78.8477 108.061ZM80.1367 131.85C79.375 131.293 78.3496 131.293 77.5586 131.85L74.6289 133.959V125.229C75.918 125.756 77.3535 126.049 78.8184 126.049C80.3125 126.049 81.7187 125.756 83.0078 125.229V133.959L80.1367 131.85Z" fill="white"/>
<path d="M70.6738 68.9199H78.8477C80.0488 68.9199 81.0449 67.9238 81.0449 66.7227C81.0449 65.5215 80.0488 64.5254 78.8477 64.5254H70.6738C69.4727 64.5254 68.4766 65.5215 68.4766 66.7227C68.4766 67.9238 69.4727 68.9199 70.6738 68.9199Z" fill="white"/>
<path d="M102.256 73.9004H70.6738C69.4727 73.9004 68.4766 74.8965 68.4766 76.0977C68.4766 77.2988 69.4727 78.2949 70.6738 78.2949H102.256C103.457 78.2949 104.453 77.2988 104.453 76.0977C104.453 74.8965 103.457 73.9004 102.256 73.9004Z" fill="white"/>
<path d="M102.256 83.3047H70.6738C69.4727 83.3047 68.4766 84.3008 68.4766 85.502C68.4766 86.7031 69.4727 87.6992 70.6738 87.6992H102.256C103.457 87.6992 104.453 86.7031 104.453 85.502C104.453 84.3008 103.457 83.3047 102.256 83.3047Z" fill="white"/>
</svg>
