<svg width="134" height="108" viewBox="0 0 134 108" fill="none" xmlns="http://www.w3.org/2000/svg">
<path d="M71.1695 22.0545C70.8345 22.0545 70.533 23.0805 69.8965 23.5935C69.26 24.1065 68.8245 23.9445 68.523 24.3765C68.2215 24.8085 68.523 24.8355 68.322 25.1325C68.121 25.4295 67.25 25.8615 67.25 26.3205C67.25 26.7795 68.0205 27.1035 68.657 27.5625C69.2935 28.0215 69.2265 28.2105 69.863 28.3995C70.4995 28.5885 71.203 28.0485 71.9065 28.2375C72.61 28.4265 73.0455 28.4805 73.1795 28.9665C73.3135 29.4525 73.1795 30.1005 72.476 30.0195C71.6355 29.8402 70.7634 29.7763 69.8965 29.8305C68.3555 29.8305 66.5465 30.3705 66.5465 31.7475C66.5579 31.9693 66.6268 32.1868 66.7485 32.3859C66.8703 32.585 67.0424 32.7614 67.2538 32.9037C67.4651 33.0461 67.711 33.1513 67.9757 33.2126C68.2405 33.2738 68.5182 33.2898 68.791 33.2595C69.5615 33.2595 69.193 32.3955 69.6285 32.0175C70.064 31.6395 73.414 33.6645 76.3285 33.6645C76.9129 33.6913 77.4973 33.6104 78.0371 33.428C78.5769 33.2455 79.0581 32.9663 79.444 32.6115C79.444 32.6115 79.645 32.4225 79.779 32.4225C79.933 32.4461 80.0806 32.4918 80.2145 32.5575C81.7571 34.1368 83.7512 35.3914 86.0264 36.2143C88.3017 37.0371 90.7903 37.4037 93.2795 37.2825C94.7098 37.3568 96.062 37.8347 97.0985 38.6325C98.1267 39.5451 98.8829 40.6348 99.3095 41.8185C100.424 43.9379 102.053 45.8565 104.1 47.4615L106.378 48.8925C106.378 48.8925 106.378 49.1895 106.378 49.3515C106.378 50.5395 106.11 53.9685 109.293 54.1305C110.063 54.1305 109.862 53.7255 109.862 53.4015C109.754 52.79 109.846 52.1663 110.13 51.5925C110.666 50.7555 108.991 50.3775 109.025 48.5415C109.025 47.1915 107.651 47.4075 106.948 46.3815C106.47 45.9173 106.198 45.3375 106.177 44.7345C106.463 42.154 105.872 39.5593 104.469 37.2285C103.966 36.7155 103.564 36.5265 104.033 36.2835C105.458 35.6725 106.625 34.7323 107.383 33.5835C108.277 31.2861 109.786 29.1752 111.805 27.4005C112.373 27.0365 112.978 26.7114 113.614 26.4285C114.684 26.0853 115.687 25.6217 116.596 25.0515C117.333 24.4575 117.936 23.2155 117.199 22.4865C116.462 21.7575 114.753 22.2975 114.083 22.4865C109.192 24.8085 108.489 28.9395 106.78 31.2885C106.251 32.1582 105.48 32.9177 104.527 33.5078C103.574 34.0978 102.465 34.5026 101.286 34.6905C99.6839 34.7505 98.0873 34.5005 96.6295 33.9615C94.2692 33.1069 92.0969 31.9488 90.1975 30.5325C89.159 29.8845 81.186 23.5665 74.687 23.2965C74.687 23.2965 73.883 22.0005 73.682 22.0005C73.481 22.0005 72.7105 22.7565 72.3755 22.8645C72.0405 22.9725 71.5045 21.9735 71.1695 22.0005" fill="white"/>
<path d="M42.6275 59.8545C42.3307 59.8416 42.0502 59.7407 41.84 59.5713C41.6298 59.4018 41.5046 59.1758 41.4885 58.9365V42.7365H34.7885V60.6915C34.7884 61.1166 34.9956 61.5246 35.3653 61.8276C35.7351 62.1307 36.2378 62.3045 36.765 62.3115H48.423C48.6854 62.3116 48.9452 62.2695 49.1872 62.1878C49.4292 62.106 49.6486 61.9863 49.8326 61.8355C50.0166 61.6847 50.1614 61.5058 50.2588 61.3095C50.3561 61.1131 50.404 60.903 50.3995 60.6915V42.6285H43.8V58.8285C43.7839 59.0678 43.6588 59.2938 43.4485 59.4633C43.2383 59.6327 42.9579 59.7336 42.661 59.7465" fill="white"/>
<path d="M64.9385 42.6286H54.8885C54.311 42.6286 53.7571 42.8135 53.3488 43.1426C52.9404 43.4717 52.711 43.9181 52.711 44.3836V62.2036H59.411V45.8686C59.4194 45.6272 59.5421 45.3977 59.7539 45.227C59.9658 45.0563 60.2506 44.9574 60.55 44.9506C60.8464 44.9505 61.1311 45.0435 61.3438 45.2098C61.5564 45.3762 61.6803 45.6028 61.689 45.8416V62.2036H68.389V45.8416C68.389 45.5981 68.509 45.3646 68.7226 45.1924C68.9362 45.0203 69.2259 44.9236 69.528 44.9236C69.8301 44.9236 70.1198 45.0203 70.3334 45.1924C70.547 45.3646 70.667 45.5981 70.667 45.8416V62.1766H77.367V44.3566C77.367 43.8911 77.1376 43.4447 76.7292 43.1156C76.3209 42.7865 75.767 42.6016 75.1895 42.6016H65.1395" fill="white"/>
<path d="M30.4 57.2895H23.7V62.2035H17V42.6285H30.4C30.6844 42.6285 30.966 42.6741 31.2283 42.7626C31.4906 42.8511 31.7285 42.9808 31.928 43.1442C32.1275 43.3075 32.2848 43.5012 32.3905 43.714C32.4963 43.9267 32.5484 44.1544 32.544 44.3835V55.5615C32.5354 56.0177 32.3067 56.4532 31.9065 56.7757C31.5063 57.0983 30.9659 57.2826 30.4 57.2895ZM25.911 45.8955C25.9155 45.775 25.8904 45.6549 25.8373 45.5421C25.7841 45.4294 25.7039 45.3262 25.6012 45.2384C25.4986 45.1506 25.3754 45.08 25.2389 45.0306C25.1024 44.9813 24.9551 44.954 24.8055 44.9505H23.7V54.8595H24.839C25.1352 54.8525 25.4164 54.7527 25.6228 54.5813C25.8292 54.4099 25.9446 54.1804 25.9445 53.9415V45.8415" fill="white"/>
<path d="M88.3885 62.2035V57.2895H86.1105V62.2035H79.4105V44.3835C79.4105 43.9181 79.6399 43.4717 80.0483 43.1426C80.4567 42.8134 81.0105 42.6285 81.588 42.6285H92.844C93.4157 42.6356 93.961 42.8237 94.3621 43.152C94.7633 43.4804 94.9881 43.9227 94.988 44.3835V62.2035H88.3885ZM88.3885 54.8595V45.8415C88.3714 45.6076 88.2439 45.3877 88.0321 45.2271C87.8204 45.0664 87.5403 44.9771 87.2495 44.9775C86.9532 44.9774 86.6684 45.0704 86.4557 45.2368C86.2431 45.4032 86.1192 45.6298 86.1105 45.8685V54.8595H88.3885Z" fill="white"/>
</svg>
