<svg width="200" height="200" viewBox="0 0 200 200" fill="none" xmlns="http://www.w3.org/2000/svg">
<g clip-path="url(#clip0_76_23)">
<rect x="-33.3333" y="-38.6667" width="266.667" height="266.667" fill="black"/>
<path d="M130.039 92.3828C129.961 91.9141 129.727 91.4844 129.453 91.1328L117.109 75.9766C119.922 71.4453 121.445 65.8984 121.445 60.1562C121.445 45.5859 111.641 33.75 99.6094 33.75C87.5781 33.75 77.7344 45.5859 77.7344 60.1172C77.7344 66.1328 79.4141 71.875 82.4609 76.5234L70.5859 91.0937C70.2734 91.4453 70.0781 91.9141 70 92.3438L55.7031 162.734C55.5469 163.594 55.7422 164.492 56.2891 165.156C56.8359 165.82 57.6953 166.25 58.5547 166.25H141.445C143.047 166.25 144.375 164.922 144.375 163.32C144.375 163.047 144.336 162.773 144.258 162.539L130.039 92.3828ZM83.5937 60.1172C83.5937 48.7891 90.7812 39.5703 99.5703 39.5703C108.359 39.5703 115.547 48.7891 115.547 60.1172C115.547 64.0234 114.687 67.8125 113.086 71.0547L102.266 57.7734C101.719 57.1094 100.859 56.6797 100 56.6797C99.1406 56.6797 98.2812 57.0703 97.7344 57.7734L86.4062 71.6797C84.5703 68.3203 83.5937 64.3359 83.5937 60.1172ZM62.1484 160.391L75.5859 94.2187L88.3984 78.5156C88.3984 78.5156 88.3984 78.5156 88.4375 78.4766L100.039 64.2578L109.648 76.0547C109.258 76.4844 108.828 76.8359 108.438 77.2266C106.484 74.7656 103.438 73.1641 100.039 73.1641C94.1406 73.1641 89.2969 77.9687 89.2969 83.9062C89.2969 89.8437 94.1016 94.6484 100.039 94.6484C105.977 94.6484 110.781 89.8437 110.781 83.9062C110.781 83.5547 110.781 83.2422 110.742 82.8906C111.68 82.2266 112.578 81.4844 113.398 80.6641L124.492 94.2578L137.93 160.43H62.1484V160.391ZM99.3359 83.8672C99.5703 85.2734 100.82 86.2891 102.227 86.2891C102.383 86.2891 102.578 86.2891 102.734 86.25C103.32 86.1328 103.867 86.0156 104.453 85.8594C103.711 87.5781 101.992 88.75 100 88.75C97.3047 88.75 95.1172 86.5625 95.1172 83.8672C95.1172 81.1719 97.3047 78.9844 100 78.9844C101.172 78.9844 102.266 79.4141 103.086 80.1172C102.617 80.2344 102.187 80.3516 101.719 80.4297C100.117 80.7812 99.0625 82.3047 99.3359 83.8672Z" fill="white"/>
<path d="M88.8672 110.312H111.172C112.773 110.312 114.102 108.984 114.102 107.383C114.102 105.781 112.773 104.453 111.172 104.453H88.8672C87.2656 104.453 85.9375 105.781 85.9375 107.383C85.9375 108.984 87.2266 110.312 88.8672 110.312Z" fill="white"/>
<path d="M89.1797 133.437C94.375 133.437 98.6328 129.18 98.6328 123.984C98.6328 118.789 94.375 114.531 89.1797 114.531C83.9844 114.531 79.7266 118.789 79.7266 123.984C79.7266 129.18 83.9844 133.437 89.1797 133.437ZM89.1797 120.43C91.1719 120.43 92.7734 122.031 92.7734 124.023C92.7734 126.016 91.1719 127.617 89.1797 127.617C87.1875 127.617 85.5859 126.016 85.5859 124.023C85.5859 122.031 87.2266 120.43 89.1797 120.43Z" fill="white"/>
<path d="M110.82 137.461C105.625 137.461 101.367 141.719 101.367 146.914C101.367 152.109 105.625 156.367 110.82 156.367C116.016 156.367 120.273 152.109 120.273 146.914C120.273 141.719 116.016 137.461 110.82 137.461ZM110.82 150.469C108.828 150.469 107.227 148.867 107.227 146.875C107.227 144.883 108.828 143.281 110.82 143.281C112.813 143.281 114.414 144.883 114.414 146.875C114.414 148.867 112.773 150.469 110.82 150.469Z" fill="white"/>
<path d="M116.641 118.047C115.508 116.914 113.633 116.914 112.5 118.047L83.3594 147.187C82.2266 148.32 82.2266 150.195 83.3594 151.328C83.9453 151.914 84.6875 152.187 85.4297 152.187C86.1719 152.187 86.9141 151.914 87.5 151.328L116.641 122.187C117.773 121.016 117.773 119.18 116.641 118.047Z" fill="white"/>
</g>
<defs>
<clipPath id="clip0_76_23">
<rect width="200" height="200" fill="white"/>
</clipPath>
</defs>
</svg>
