<svg width="200" height="200" viewBox="0 0 200 200" fill="none" xmlns="http://www.w3.org/2000/svg">
<rect width="200" height="200" fill="black"/>
<path d="M100 49C72.5 49 50 71.7698 50 99.5996C50 127.429 72.5 150.199 100 150.199C127.5 150.199 150 127.429 150 99.5996C150 71.7698 127.5 49 100 49ZM132.5 82.5222C135 82.5222 136.875 84.4197 139.375 84.4197C137.5 86.9497 129.375 86.9497 126.875 83.7872C128.75 83.1547 130 82.5222 132.5 82.5222ZM56.25 99.5996C56.25 97.0696 56.25 94.5396 56.875 91.3772C57.5 91.3772 58.125 92.0097 58.75 92.0097C58.75 92.0097 59.375 92.6422 59.375 93.2746C59.375 95.1721 61.25 96.4371 62.5 96.4371C67.5 97.0696 69.375 101.497 73.75 102.762C75 103.395 74.375 104.66 73.75 105.925C70 110.985 73.125 114.779 76.25 117.942C79.375 120.472 79.375 123.002 80 126.797C80 131.224 80.625 136.284 82.5 140.712C66.875 133.122 56.25 117.942 56.25 99.5996ZM100 143.874C95.625 143.874 90.625 143.242 86.875 141.977C86.25 140.712 86.25 139.447 86.875 138.182C89.375 133.122 91.875 128.694 95 124.267C96.25 123.002 97.5 121.737 97.5 119.839C97.5 118.574 98.125 116.677 98.75 115.412C100.625 112.249 100 110.352 97.5 109.72C92.5 108.455 90 104.027 86.25 102.13C82.5 100.232 78.75 98.9671 75.625 100.865C74.375 101.497 72.5 102.13 72.5 100.232C72.5 97.7021 69.375 95.8046 70 93.2746C69.375 93.2746 68.75 93.2746 68.125 93.9071C67.5 94.5396 66.875 95.1721 65.625 94.5396C64.375 93.2746 65 92.0097 65 90.7447C65.625 89.4797 66.25 88.8472 67.5 88.2147C70 87.5822 72.5 87.5822 73.75 90.7447C75.625 85.0522 79.375 81.8897 83.125 79.3598C83.125 79.3598 88.125 74.9323 88.75 74.9323C89.375 74.9323 90 76.1973 91.25 76.8298C92.5 76.8298 93.125 76.8298 93.125 75.5648C93.75 72.4023 91.875 68.6073 89.375 67.9748C89.375 67.3424 90 67.3424 90 67.3424C91.875 66.7099 94.375 65.4449 93.75 63.5474C93.75 61.0174 91.25 59.7524 88.75 59.7524C87.5 59.7524 86.25 59.7524 85 60.3849C82.5 61.6499 79.375 62.9149 75.625 62.9149C82.5 57.8549 91.25 55.3249 100 55.3249C101.875 55.3249 103.125 55.3249 105 55.3249C101.25 55.9574 97.5 57.2224 95 58.4874C98.75 59.1199 99.375 61.0174 98.125 64.1799C97.5 65.4449 98.125 66.7099 99.375 67.3424C100.625 67.9748 101.875 67.9748 102.5 66.7099C103.75 64.8124 106.25 64.1799 108.125 63.5474C110.625 62.9149 112.5 61.6499 114.375 59.1199C114.375 58.4874 115 58.4874 115.625 57.8549C119.375 59.1199 123.125 61.6499 126.875 64.1799C126.25 64.1799 126.25 64.8124 125.625 64.8124C124.375 66.0774 122.5 66.7099 124.375 69.2398C125 70.5048 124.375 71.1373 123.75 71.7698C122.5 72.4023 121.875 71.7698 121.25 71.1373C120.625 70.5048 120.625 69.2398 118.75 69.2398C118.125 70.5048 116.25 71.1373 116.25 73.0348C119.375 73.0348 118.75 75.5648 119.375 77.4623C115.625 78.0948 114.375 79.9923 116.25 83.1547C116.875 84.4197 115.625 85.0522 115 85.6847C112.5 89.4797 110 92.0097 110 96.4371C110 100.865 113.125 105.292 118.125 104.66C123.75 104.027 123.75 104.027 125.625 109.087C125.625 109.72 126.25 110.352 126.25 110.985C126.875 112.25 127.5 113.514 126.875 114.779C125 119.839 127.5 123.634 129.375 127.429C130 128.694 130.625 129.327 131.25 129.959C123.125 138.814 112.5 143.874 100 143.874Z" fill="white"/>
</svg>
